<?xml version="1.0" standalone="no"?>
<!DOCTYPE svg PUBLIC "-//W3C//DTD SVG 20010904//EN"
 "http://www.w3.org/TR/2001/REC-SVG-20010904/DTD/svg10.dtd">
<svg version="1.0" xmlns="http://www.w3.org/2000/svg"
 width="100px" height="100px" role="img" viewBox="0 0 1024.000000 1024.000000"
 preserveAspectRatio="xMidYMid meet">

<g transform="translate(0.000000,1024.000000) scale(0.100000,-0.100000)"
fill="#000000" stroke="none">
<path d="M7725 6875 c-122 -62 -101 -245 33 -286 77 -23 159 26 182 109 34
124 -101 234 -215 177z"/>
<path d="M2165 6849 c-93 -15 -171 -28 -172 -28 -2 -1 -3 -8 -3 -16 0 -10 10
-15 33 -15 39 0 74 -23 90 -59 8 -18 13 -228 17 -691 l5 -665 25 -44 c31 -54
83 -83 160 -89 99 -7 186 32 249 112 37 46 39 60 9 49 -13 -4 -52 -8 -87 -8
-58 0 -66 2 -85 28 -21 28 -21 35 -26 740 -5 703 -5 712 -25 713 -11 1 -96
-11 -190 -27z"/>
<path d="M1160 6683 c-302 -801 -419 -1102 -460 -1189 -58 -120 -102 -165
-185 -189 -31 -9 -55 -21 -53 -27 2 -5 7 -9 11 -9 4 1 102 1 217 1 171 0 210
3 210 14 0 9 -19 16 -60 20 -119 14 -120 48 -12 349 l56 157 254 -2 255 -3 49
-134 c57 -158 103 -323 95 -344 -4 -10 -27 -17 -66 -22 -42 -5 -61 -11 -61
-21 0 -12 47 -14 285 -14 157 0 285 4 285 9 0 5 -14 14 -30 21 -65 27 -109 69
-144 137 -42 84 -415 1097 -501 1361 -15 48 -19 52 -49 52 l-32 0 -64 -167z
m10 -238 c7 -22 55 -160 106 -307 52 -147 94 -269 94 -272 0 -3 -103 -6 -230
-6 -126 0 -230 4 -230 8 0 7 124 347 207 565 14 38 29 65 33 60 4 -4 13 -26
20 -48z"/>
<path d="M8202 6823 c-8 -3 8 -28 46 -71 97 -111 150 -184 360 -495 l202 -298
-194 -227 c-193 -228 -316 -352 -407 -414 -27 -18 -49 -36 -49 -40 0 -5 95 -8
210 -8 131 0 210 4 210 10 0 5 -12 12 -27 16 -57 12 -63 16 -69 41 -23 92 47
259 173 414 103 126 162 193 167 188 11 -11 348 -533 385 -596 l43 -73 245 0
244 0 -73 83 c-112 125 -149 177 -381 528 l-214 325 142 160 c183 207 331 352
410 406 36 24 65 46 65 51 0 4 -72 7 -160 7 -88 0 -160 -2 -160 -5 0 -3 10
-19 21 -35 17 -23 20 -36 14 -66 -15 -81 -84 -192 -238 -382 -81 -100 -102
-121 -112 -110 -30 32 -299 441 -337 513 l-43 80 -230 2 c-127 1 -236 -1 -243
-4z"/>
<path d="M4720 6460 c-78 -17 -186 -77 -255 -143 l-65 -62 0 97 c0 54 -3 98
-7 98 -5 0 -95 -19 -200 -42 -132 -28 -193 -46 -193 -55 0 -7 11 -13 25 -13
44 0 94 -27 106 -57 16 -38 24 -607 11 -791 -11 -165 -14 -171 -94 -187 -28
-6 -53 -16 -56 -23 -3 -9 57 -12 273 -12 215 0 276 3 273 12 -3 7 -24 16 -48
20 -24 4 -50 13 -57 20 -26 27 -33 128 -33 487 l0 366 29 36 c16 19 53 48 82
64 46 25 67 30 144 33 110 4 150 -12 180 -73 19 -38 20 -60 20 -440 0 -220 -3
-416 -8 -436 -8 -40 -33 -56 -96 -61 -19 -2 -36 -9 -39 -15 -3 -10 56 -13 273
-13 217 0 276 3 273 13 -3 6 -15 13 -29 15 -58 7 -88 23 -100 55 -10 24 -14
136 -17 439 l-3 406 53 40 c76 56 111 67 208 67 98 0 140 -17 167 -68 16 -29
18 -71 21 -412 3 -391 0 -470 -22 -500 -8 -11 -31 -19 -64 -23 -35 -3 -52 -9
-52 -18 0 -12 49 -14 280 -14 231 0 280 2 280 14 0 9 -17 16 -48 20 -62 8 -89
28 -102 74 -5 20 -10 132 -11 247 0 116 -4 307 -7 426 -7 214 -7 216 -37 275
-94 183 -359 190 -581 13 -36 -28 -69 -60 -75 -71 -13 -25 -21 -17 -43 45 -38
101 -104 145 -232 152 -43 2 -99 0 -124 -5z"/>
<path d="M6835 6457 c-109 -29 -199 -82 -284 -169 l-51 -52 0 108 c0 107 0
108 -22 104 -13 -3 -103 -22 -200 -44 -181 -39 -215 -57 -140 -69 62 -11 72
-16 90 -43 15 -23 17 -67 20 -420 4 -527 -1 -558 -102 -569 -30 -4 -46 -10
-46 -19 0 -12 50 -14 281 -14 220 0 280 3 277 12 -3 7 -26 16 -53 20 -74 11
-85 28 -96 149 -4 57 -8 238 -9 402 0 237 3 304 14 325 68 130 345 179 435 77
44 -50 51 -118 51 -486 0 -309 -8 -431 -29 -452 -5 -5 -32 -12 -60 -15 -29 -2
-52 -10 -55 -18 -4 -12 40 -14 269 -14 238 0 275 2 275 15 0 8 -8 15 -17 15
-10 0 -35 5 -55 11 -73 20 -72 17 -78 509 -5 415 -6 437 -26 480 -50 107 -129
157 -259 165 -49 3 -100 0 -130 -8z"/>
<path d="M7698 6412 c-184 -37 -217 -54 -133 -67 25 -3 58 -17 73 -30 l27 -23
3 -429 c3 -433 -2 -517 -33 -543 -8 -6 -35 -15 -61 -18 -26 -4 -49 -13 -52
-20 -3 -9 55 -12 267 -12 224 0 271 2 271 14 0 9 -16 16 -44 20 -80 12 -80 13
-87 310 -4 143 -7 390 -8 549 l-1 287 -22 -1 c-13 -1 -103 -17 -200 -37z"/>
<path d="M2880 6419 c-236 -37 -250 -40 -250 -55 0 -8 10 -14 25 -14 39 0 92
-26 107 -52 10 -18 14 -119 18 -438 6 -473 5 -467 90 -543 64 -58 135 -80 238
-76 110 5 191 47 295 149 l77 78 0 -37 c0 -86 50 -162 120 -181 52 -15 126
-12 168 5 43 18 107 77 128 118 l15 28 -50 -7 c-27 -3 -61 -4 -74 0 -51 12
-52 23 -55 552 l-3 491 -52 -8 c-29 -5 -117 -13 -196 -18 -79 -6 -146 -12
-148 -15 -12 -12 12 -26 45 -26 49 0 79 -22 92 -68 6 -22 10 -170 10 -364 0
-309 -1 -330 -21 -384 -27 -70 -83 -129 -141 -145 -24 -7 -74 -13 -113 -13
-80 0 -121 18 -151 68 -18 29 -19 61 -22 504 -3 438 -4 472 -20 471 -9 -1 -69
-10 -132 -20z"/>
<path d="M9181 5007 c-52 -84 -136 -216 -187 -294 l-93 -142 72 -3 72 -3 5
-465 c5 -424 7 -469 24 -515 27 -70 99 -139 167 -159 104 -31 176 -18 260 48
59 46 174 190 164 205 -3 5 -28 -6 -56 -25 -64 -43 -119 -58 -193 -51 -78 7
-103 31 -116 112 -5 33 -10 237 -10 453 l0 392 163 1 c89 1 165 1 170 0 4 0 7
19 7 44 l0 45 -167 2 -168 3 -3 253 c-1 138 -6 252 -10 252 -4 -1 -49 -69
-101 -153z"/>
<path d="M1228 5080 c-185 -31 -357 -129 -474 -268 -64 -77 -144 -234 -171
-337 -14 -54 -18 -108 -18 -240 0 -199 15 -270 90 -414 103 -199 268 -332 480
-387 96 -24 286 -24 374 0 214 59 364 212 396 404 11 70 -16 51 -48 -32 -70
-189 -191 -292 -387 -332 -243 -49 -439 77 -531 343 -118 344 -77 796 94 1035
91 127 208 188 358 188 242 0 384 -142 433 -432 9 -54 17 -74 29 -76 16 -3 17
18 17 252 0 141 0 259 1 263 0 4 -4 9 -9 11 -5 1 -13 -12 -19 -30 -8 -29 -13
-33 -44 -32 -19 1 -70 16 -114 33 -44 18 -110 39 -148 47 -72 15 -231 17 -309
4z"/>
<path d="M2532 4650 c-255 -67 -434 -297 -450 -576 -15 -283 140 -521 406
-622 59 -23 83 -26 197 -26 147 -1 198 11 299 72 237 142 352 448 275 735 -22
83 -91 200 -159 267 -146 146 -364 203 -568 150z m196 -39 c97 -49 196 -212
246 -402 98 -371 23 -676 -180 -735 -117 -34 -197 -3 -274 107 -97 138 -149
310 -157 519 -7 165 7 254 52 348 72 151 203 219 313 163z"/>
<path d="M4162 4655 c-29 -8 -67 -22 -85 -31 -58 -30 -154 -102 -185 -141
l-31 -38 -1 103 0 103 -37 -7 c-83 -15 -364 -82 -369 -87 -13 -13 9 -27 42
-27 20 0 44 -5 56 -11 46 -25 48 -50 47 -511 -1 -238 -4 -442 -7 -453 -16 -46
-30 -57 -88 -69 -32 -7 -58 -16 -57 -21 2 -6 115 -11 283 -13 233 -2 280 0
280 12 0 9 -17 16 -50 20 -66 9 -86 30 -96 103 -11 76 -11 730 -1 766 13 47
83 114 143 137 62 23 179 27 235 9 50 -17 86 -55 98 -104 13 -54 15 -782 1
-839 -12 -53 -26 -64 -89 -73 -30 -5 -56 -14 -59 -21 -3 -9 58 -12 282 -12
240 0 286 2 286 14 0 9 -15 17 -40 21 -46 8 -87 37 -103 74 -7 17 -13 178 -16
466 -6 419 -7 442 -27 485 -27 58 -77 108 -134 134 -59 26 -203 32 -278 11z"/>
<path d="M5593 4655 c-96 -27 -194 -89 -265 -168 l-37 -42 -1 98 c0 86 -2 97
-17 97 -32 0 -378 -73 -388 -82 -13 -12 13 -28 47 -28 45 0 77 -21 90 -59 10
-27 13 -142 13 -466 0 -527 7 -498 -119 -523 -22 -4 -41 -13 -44 -20 -3 -9 63
-12 287 -12 240 0 291 2 291 14 0 9 -17 16 -49 20 -67 9 -89 30 -101 95 -5 29
-10 215 -10 413 0 401 -2 389 71 452 55 47 122 68 215 68 99 -1 160 -29 189
-87 19 -38 20 -60 20 -455 0 -491 4 -470 -93 -484 -40 -6 -62 -14 -62 -23 0
-10 55 -13 285 -13 235 0 285 2 285 14 0 8 -16 16 -41 20 -56 9 -76 21 -96 59
-16 29 -19 77 -23 467 -6 419 -7 437 -28 490 -25 64 -79 122 -137 146 -55 23
-214 29 -282 9z"/>
<path d="M6800 4659 c-63 -12 -196 -80 -252 -129 -65 -56 -142 -176 -175 -274
-25 -73 -28 -95 -28 -216 0 -112 4 -147 22 -205 80 -253 297 -415 558 -418
156 -1 277 47 393 157 74 70 149 177 137 197 -4 6 -32 -14 -69 -49 -106 -102
-206 -138 -362 -130 -115 5 -183 35 -262 115 -91 92 -142 207 -155 355 l-6 58
442 2 442 3 -3 45 c-18 238 -187 438 -409 485 -74 16 -202 18 -273 4z m201
-34 c64 -23 102 -57 136 -122 38 -71 61 -156 70 -257 l6 -76 -303 0 -303 0 7
61 c19 168 93 307 193 366 74 43 128 51 194 28z"/>
<path d="M8153 4656 c-226 -52 -399 -220 -460 -447 -24 -89 -24 -273 1 -354
63 -211 221 -369 421 -420 68 -17 218 -19 285 -4 125 29 262 135 333 257 20
35 37 65 37 68 0 14 -25 -1 -64 -40 -99 -96 -196 -130 -350 -124 -92 3 -107 7
-164 38 -162 87 -251 275 -239 506 7 126 40 231 103 326 50 75 99 118 171 150
98 45 271 22 310 -41 10 -17 8 -21 -18 -31 -70 -29 -98 -133 -50 -184 54 -57
149 -55 206 4 40 42 47 120 13 170 -31 45 -89 85 -163 111 -78 28 -280 36
-372 15z"/>
</g>
</svg>
