<?xml version="1.0" standalone="no"?>
<!DOCTYPE svg PUBLIC "-//W3C//DTD SVG 20010904//EN"
 "http://www.w3.org/TR/2001/REC-SVG-20010904/DTD/svg10.dtd">
<svg version="1.0" xmlns="http://www.w3.org/2000/svg"
 width="100%" height="100%" role="img" viewBox="0 0 1024.000000 1024.000000"
 preserveAspectRatio="xMidYMid meet">

<g transform="translate(0.000000,1024.000000) scale(0.100000,-0.100000)"
fill="#000000" stroke="none">
<path d="M0 5120 l0 -5120 5120 0 5120 0 0 5120 0 5120 -5120 0 -5120 0 0
-5120z m8221 920 c118 -137 217 -249 221 -247 4 1 104 113 223 250 l216 247
306 0 307 0 -25 -27 c-14 -16 -169 -190 -345 -387 -175 -198 -366 -410 -424
-471 -58 -61 -180 -203 -271 -315 -92 -113 -233 -283 -314 -377 l-148 -173
-299 0 -300 0 50 60 c28 33 198 231 379 441 180 210 328 387 328 394 0 7 -79
104 -176 216 -253 293 -539 629 -539 634 0 3 134 5 299 5 l298 0 214 -250z
m-6779 83 c8 -10 23 -40 33 -68 18 -51 189 -488 341 -873 46 -118 84 -218 84
-223 0 -6 -65 -8 -161 -7 l-162 3 -35 103 -36 102 -197 0 -196 0 -38 -105 -37
-105 -154 0 c-106 0 -154 3 -154 11 0 6 61 169 136 363 75 193 174 452 220
575 47 123 87 228 90 232 3 5 60 9 128 9 105 0 125 -3 138 -17z m856 -455 l2
-468 159 0 c123 0 161 -3 170 -14 8 -9 11 -51 9 -122 l-3 -109 -317 -3 -318
-2 0 588 c0 324 3 592 7 596 4 3 70 5 147 4 l141 -3 3 -467z m756 466 c14 -5
16 -48 16 -378 0 -204 4 -388 9 -409 13 -53 49 -102 96 -129 31 -18 55 -23
110 -23 111 0 178 47 205 144 6 21 10 189 10 407 0 305 2 374 14 383 9 8 57
11 147 9 l134 -3 3 -398 c2 -338 0 -408 -14 -460 -43 -169 -177 -296 -354
-338 -30 -7 -95 -13 -145 -13 -152 -1 -264 38 -360 126 -64 58 -99 113 -128
201 -19 57 -21 92 -25 460 -3 303 -1 401 8 412 10 12 39 15 135 15 68 0 130
-3 139 -6z m1503 -329 c78 -181 146 -331 151 -333 5 -1 39 66 76 150 36 84
101 234 144 333 l78 180 134 0 134 0 8 -35 c4 -19 26 -161 48 -315 23 -154 61
-401 86 -548 24 -148 42 -273 39 -278 -7 -11 -305 -12 -305 -1 0 24 -90 605
-94 610 -3 2 -10 -6 -15 -19 -5 -13 -57 -134 -116 -269 -59 -135 -115 -264
-125 -287 l-19 -43 -79 0 -79 0 -128 310 c-115 279 -145 337 -145 280 0 -17
-84 -514 -95 -567 -5 -23 -8 -23 -155 -23 l-150 0 0 25 c0 13 4 46 10 72 5 26
48 273 95 548 47 275 90 510 95 523 10 22 13 23 137 20 l127 -3 143 -330z
m1385 323 c9 -7 73 -92 144 -188 171 -234 332 -450 358 -478 l21 -24 5 349 5
348 145 0 145 0 3 -592 2 -593 -152 1 -153 0 -235 311 c-129 172 -247 326
-262 342 l-27 31 -1 -342 0 -343 -145 0 -145 0 0 588 c0 324 3 592 7 595 12
13 268 8 285 -5z m1352 6 c14 -6 16 -67 16 -595 l0 -590 -147 3 -148 3 -3 584
c-2 461 0 586 10 593 15 9 249 11 272 2z m1602 -891 c54 -65 210 -245 345
-400 136 -155 250 -286 254 -292 4 -8 -85 -11 -302 -11 l-309 0 -49 59 c-28
32 -119 138 -203 235 l-153 177 21 27 c40 50 285 322 291 322 3 0 50 -53 105
-117z m-7585 -583 c61 -23 126 -66 140 -93 9 -15 5 -25 -17 -48 -35 -37 -53
-36 -89 1 -35 37 -121 70 -180 70 -156 0 -287 -143 -272 -300 8 -95 56 -170
137 -214 100 -55 233 -43 316 28 l41 35 36 -26 c21 -14 37 -32 37 -39 0 -18
-70 -71 -137 -101 -79 -37 -218 -39 -305 -4 -71 28 -161 107 -193 171 -84 166
-33 374 117 481 84 60 265 79 369 39z m1191 -13 c75 -37 138 -99 174 -172 26
-55 29 -69 29 -165 0 -95 -3 -111 -28 -162 -32 -65 -104 -135 -172 -167 -283
-133 -598 95 -545 397 15 89 48 149 114 210 82 74 136 92 266 89 92 -2 112 -5
162 -30z m1376 -329 l2 -358 -39 0 c-45 0 -20 -25 -291 294 l-185 218 -5 -253
-5 -254 -52 -3 -53 -3 0 355 0 356 46 0 c38 0 50 -5 68 -27 46 -60 373 -439
389 -452 16 -13 17 3 17 231 0 135 3 248 7 252 4 4 28 6 53 4 l45 -3 3 -357z
m1082 312 l0 -50 -197 -2 -198 -3 0 -105 0 -105 178 -3 178 -2 -3 -48 -3 -47
-179 -3 -179 -2 7 -53 c3 -28 6 -76 6 -104 l0 -53 201 0 200 0 -3 -47 -3 -48
-251 -3 -251 -2 -6 196 c-9 254 -9 519 0 527 3 4 118 7 255 7 l248 0 0 -50z
m1056 21 c28 -12 69 -40 90 -62 l39 -40 -38 -35 -38 -35 -44 40 c-76 70 -208
90 -296 46 -47 -24 -107 -83 -131 -129 -25 -49 -34 -138 -19 -193 52 -190 290
-265 439 -137 l43 36 39 -27 c45 -31 43 -46 -13 -89 -195 -149 -474 -92 -585
119 -25 46 -27 60 -27 165 0 100 3 121 23 161 46 92 121 158 220 196 59 21
234 13 298 -16z m1102 -23 l3 -48 -120 0 -121 0 0 -310 0 -310 -55 0 -55 0 0
310 0 310 -125 0 c-123 0 -125 0 -126 23 -4 55 -4 62 -1 70 2 4 137 6 300 5
l297 -3 3 -47z"/>
<path d="M1305 5690 c-6 -10 -105 -288 -105 -296 0 -2 50 -4 111 -4 85 0 110
3 107 13 -3 6 -26 76 -52 155 -26 78 -49 142 -51 142 -2 0 -7 -4 -10 -10z"/>
<path d="M2254 4579 c-65 -19 -127 -72 -163 -140 -30 -59 -33 -70 -29 -135 8
-125 78 -215 192 -249 99 -30 187 -9 264 60 62 55 87 115 86 200 -3 184 -176
315 -350 264z"/>
</g>
</svg>
