<?xml version="1.0" standalone="no"?>
<!DOCTYPE svg PUBLIC "-//W3C//DTD SVG 20010904//EN"
 "http://www.w3.org/TR/2001/REC-SVG-20010904/DTD/svg10.dtd">
<svg version="1.0" xmlns="http://www.w3.org/2000/svg"
 width="1024.000000pt" height="1024.000000pt" viewBox="0 0 1024.000000 1024.000000"
 preserveAspectRatio="xMidYMid meet">

<g transform="translate(0.000000,1024.000000) scale(0.100000,-0.100000)"
fill="#000000" stroke="none">
<path d="M0 5120 l0 -5120 5120 0 5120 0 0 5120 0 5120 -5120 0 -5120 0 0
-5120z m7515 1240 c139 -16 268 -54 401 -120 139 -67 254 -150 367 -263 108
-108 108 -107 -58 -220 -131 -89 -224 -147 -237 -147 -4 0 -38 28 -75 63 -157
147 -309 215 -518 232 -353 30 -690 -220 -791 -586 -25 -90 -26 -319 -1 -409
58 -216 197 -391 387 -489 134 -70 204 -86 370 -86 137 1 150 2 240 33 117 41
216 101 314 193 53 50 81 69 93 65 10 -3 92 -57 183 -119 123 -85 166 -119
168 -136 3 -18 -12 -40 -60 -89 -342 -350 -824 -486 -1296 -367 -189 48 -406
176 -552 326 -370 379 -449 1022 -184 1496 241 431 740 680 1249 623z m-4277
-31 c23 -12 56 -37 73 -57 29 -36 839 -1640 839 -1663 0 -12 -260 -419 -288
-452 -9 -9 -19 -14 -23 -10 -4 5 -35 70 -69 146 l-63 137 -302 0 c-167 0 -310
3 -319 6 -9 3 -16 12 -16 19 0 7 47 109 104 228 l105 216 94 3 95 3 -144 300
c-183 382 -177 370 -192 370 -15 0 -159 -295 -464 -950 -303 -653 -295 -635
-337 -675 -52 -50 -94 -58 -295 -55 -151 2 -171 5 -183 21 -7 10 -10 27 -7 38
16 54 1016 2208 1060 2283 64 111 209 150 332 92z m1161 -9 c99 -13 154 -37
207 -91 21 -22 141 -185 265 -362 124 -177 232 -323 241 -325 10 -2 71 77 182
238 313 452 332 476 410 510 22 11 70 24 106 29 82 14 380 14 414 1 15 -5 28
-20 32 -36 8 -30 -18 -69 -319 -484 -409 -563 -487 -672 -487 -684 0 -7 28
-51 63 -97 35 -46 187 -255 337 -463 150 -209 306 -424 346 -479 41 -55 74
-110 74 -122 0 -12 -9 -30 -19 -39 -18 -16 -42 -18 -225 -17 -277 2 -341 20
-422 119 -33 40 -228 316 -388 550 -53 78 -101 142 -106 142 -4 0 -114 -153
-245 -339 -130 -187 -253 -356 -273 -377 -49 -51 -130 -85 -221 -95 -107 -11
-355 -11 -385 1 -36 13 -43 52 -17 95 24 42 347 494 613 858 103 142 188 262
188 268 0 8 -479 681 -716 1006 -94 129 -105 154 -79 183 17 18 32 20 179 20
89 0 199 -5 245 -10z"/>
</g>
</svg>
