<svg xmlns="http://www.w3.org/2000/svg" xmlns:xlink="http://www.w3.org/1999/xlink" width="512px" height="512px" viewBox="0 0 512 512" version="1.1">
<g id="surface1">
<path style=" stroke:none;fill-rule:nonzero;fill:rgb(0%,0%,0%);fill-opacity:1;" d="M 385.59375 181.59375 C 337.203125 204 321.59375 263.203125 353.203125 304.796875 C 369.59375 326 386 335.59375 410.796875 338.40625 C 437.59375 341.59375 460 334.796875 480.40625 316.796875 L 497.203125 301.59375 L 479.203125 291.203125 L 461.203125 281.203125 L 450.40625 290.796875 C 436.40625 302.796875 409.59375 303.59375 394.796875 292 C 372 274 373.59375 234.40625 397.203125 219.59375 C 413.59375 209.203125 440.40625 211.203125 454 224 L 463.203125 232.796875 L 480 221.59375 L 497.203125 210.40625 L 480.40625 195.59375 C 452.796875 171.203125 418.796875 166 385.59375 181.59375 Z M 365.59375 242.796875 C 363.59375 250 362 251.203125 359.59375 247.203125 C 357.59375 244.40625 356 239.203125 356 236 C 356 230.796875 356.40625 230.796875 360.40625 236 C 363.59375 240.40625 364 238.40625 362.40625 228 C 360.40625 216 360.40625 215.59375 364 223.203125 C 366 228.40625 366.796875 237.203125 365.59375 242.796875 Z M 366 275.59375 C 364.40625 280.796875 366.796875 286.40625 372.40625 291.59375 C 377.59375 296.40625 380 300 378.40625 300 C 376.40625 300 377.203125 302.796875 380 306 C 382.796875 309.203125 384 312 382.40625 312 C 379.203125 312 356 279.59375 356 275.203125 C 356 273.203125 358 272.796875 360 274 C 362.40625 275.203125 364 274.40625 364 272.40625 C 364 270 365.203125 268 366.40625 268 C 367.59375 268 367.59375 271.59375 366 275.59375 Z M 366 275.59375 "/>
<path style=" stroke:none;fill-rule:nonzero;fill:rgb(0%,0%,0%);fill-opacity:1;" d="M 57.59375 256 C 35.59375 300 18 336.796875 18.40625 337.203125 C 18.796875 337.59375 29.59375 337.203125 42 336.796875 C 64 335.203125 64.40625 335.203125 73.203125 317.59375 L 81.59375 300 L 162.796875 300 L 177.203125 332 L 190.40625 312.796875 L 203.203125 293.59375 L 173.59375 234.796875 L 143.59375 176 L 98 176 Z M 129.59375 196 C 135.203125 198 140.796875 204 142.40625 210 C 144 216 146.796875 218.796875 149.59375 217.203125 C 152 215.59375 151.203125 218 148 222 C 142.40625 228.796875 142.796875 229.203125 148.796875 226.796875 C 153.203125 225.203125 154.796875 226 153.59375 229.59375 C 152.40625 232.40625 154.40625 237.203125 158 240 C 161.203125 242.796875 164 248.40625 164 252.40625 C 164 256.796875 166 260 168 260 C 170.40625 260 172 262.40625 172 265.203125 C 172 268 174 272.40625 176.796875 275.203125 C 179.203125 277.59375 181.59375 284 182 289.203125 C 182 298.40625 181.59375 298.40625 173.59375 293.59375 C 169.203125 290.40625 164 289.203125 162 290.796875 C 160.40625 292.796875 160 291.59375 161.59375 288.796875 C 164 284.796875 162.796875 283.59375 157.59375 284 C 153.203125 284.40625 146.796875 284.796875 142.796875 284.40625 C 136 284 136 283.59375 141.59375 277.59375 C 145.203125 274.40625 148 269.59375 148 267.59375 C 148 265.203125 150 264.796875 152 266 C 154.796875 267.59375 155.59375 265.203125 154 259.203125 C 152.40625 254 151.203125 246.40625 150.40625 242.40625 C 150 238.40625 143.59375 229.203125 136.40625 221.59375 L 123.203125 208.40625 L 110.40625 218 C 94.796875 230 85.203125 255.59375 92 268 C 94.40625 272.40625 98 276 100.40625 276 C 102.796875 276 103.203125 277.59375 102 280 C 100.796875 282 96.796875 284 93.203125 284 C 84.40625 284 60 303.203125 60 310.40625 C 60 313.203125 57.203125 316 54 316 C 50.796875 316 48 314 48 312 C 48 309.59375 49.59375 308 52 308 C 54 308 54.796875 305.203125 53.203125 302 C 52 298.40625 53.59375 292.796875 56.796875 288.796875 C 68.40625 275.59375 88 237.203125 84.796875 234 C 83.203125 232 84.40625 232 87.59375 234 C 92 236.40625 92.796875 234.796875 91.203125 226.796875 C 90 220.796875 90.40625 217.203125 92.40625 218 C 94 219.203125 96.796875 216 98.40625 211.203125 C 104 192 110.796875 188.796875 129.59375 196 Z M 134.40625 244.796875 L 143.59375 264 L 124.796875 264 C 114 264 103.59375 266 100.796875 268.796875 C 98 271.59375 101.59375 260.796875 108.796875 244.796875 C 116 229.203125 122.796875 218.40625 123.59375 221.203125 C 124.40625 223.59375 129.203125 234.40625 134.40625 244.796875 Z M 134.40625 244.796875 "/>
<path style=" stroke:none;fill-rule:nonzero;fill:rgb(0%,0%,0%);fill-opacity:1;" d="M 186.796875 180.796875 C 217.203125 220.796875 240 252 240 254.796875 C 240 258.40625 200 316.796875 189.59375 328.796875 C 185.59375 332.796875 183.59375 336.40625 184.40625 337.203125 C 185.203125 338 197.203125 337.59375 211.203125 336.796875 L 236.40625 335.203125 L 252.796875 311.59375 L 269.203125 288.40625 L 285.59375 311.59375 L 302 335.203125 L 328 336.796875 C 342.40625 337.59375 354.40625 338 355.203125 337.59375 C 356 337.203125 342.796875 318.796875 326 296.40625 L 295.59375 256 L 356.40625 176 L 304 176 L 290.796875 194.40625 C 284 204.796875 276 215.59375 274 218.796875 C 270.796875 223.203125 266.40625 219.59375 252.796875 200 L 235.59375 176 L 209.203125 176 C 188.796875 176 184 177.203125 186.796875 180.796875 Z M 233.203125 202.796875 C 231.203125 207.59375 232 208.40625 236 206 C 239.203125 204 240.40625 204.40625 238.796875 206.796875 C 235.59375 212 245.59375 221.203125 250 216.796875 C 252 215.203125 252 216 250.40625 218.796875 C 248.796875 221.59375 252.40625 226 259.203125 229.59375 C 269.59375 234.796875 271.59375 234.796875 280.40625 228.796875 C 290.796875 221.59375 304.40625 206 308.796875 196.40625 C 310.796875 191.59375 311.59375 192 311.59375 198.40625 C 312 203.203125 309.203125 209.203125 306 212 C 302.40625 214.796875 300.40625 219.203125 301.59375 222 C 302.40625 224.40625 299.59375 228.796875 295.203125 231.59375 C 290.796875 234.40625 288.40625 237.59375 289.59375 238.796875 C 290.796875 240.40625 290 243.59375 287.59375 246.40625 C 282.796875 252.40625 286.40625 274.40625 292.796875 278.40625 C 295.59375 280.40625 296 279.203125 294 276 C 291.59375 272.40625 292.40625 271.59375 295.59375 273.59375 C 298.40625 275.59375 299.59375 279.203125 298.40625 282.40625 C 297.203125 285.59375 297.59375 288 299.59375 288 C 302.796875 288 312 305.59375 312 312.40625 C 312 314.796875 304.40625 308.40625 295.203125 298.40625 C 285.59375 287.59375 275.203125 280 270.40625 280 C 260 280.40625 247.203125 289.59375 251.203125 294 C 252.796875 296 252 296 249.59375 294.796875 C 246.796875 293.203125 242.796875 294.796875 240 298 C 237.203125 301.203125 236.40625 304 238.40625 304 C 240 304 238 306.796875 233.59375 310.40625 C 229.59375 313.59375 228.40625 315.203125 231.59375 313.59375 C 235.203125 311.59375 236.40625 312.40625 234.40625 315.59375 C 232.796875 318 229.59375 319.203125 227.59375 318 C 223.203125 314.796875 222.796875 304 227.203125 304 C 229.203125 304 233.203125 299.203125 236 292.796875 C 239.203125 286.796875 244 279.203125 247.203125 275.203125 C 252.796875 268.40625 256.796875 248 252.40625 248 C 250.796875 248 247.59375 242 244.796875 234.796875 C 242 227.59375 236.40625 217.59375 232 212.796875 C 227.203125 208 225.59375 203.59375 228 202 C 230.40625 200.40625 230.796875 197.59375 229.59375 195.203125 C 228 192.40625 228.796875 192 231.203125 193.59375 C 233.59375 195.203125 234.40625 199.203125 233.203125 202.796875 Z M 233.203125 202.796875 "/>
</g>
</svg>
