<svg xmlns="http://www.w3.org/2000/svg"  xmlns:xlink="http://www.w3.org/1999/xlink" width="128px" height="128px" viewBox="0 0 128 128" version="1.1">
<g id="surface1">
<path style=" stroke:none;fill-rule:nonzero;fill:rgb(0%,0%,0%);fill-opacity:1;" d="M 96.398438 45.398438 C 84.300781 51 80.398438 65.800781 88.300781 76.199219 C 92.398438 81.5 96.5 83.898438 102.699219 84.601562 C 109.398438 85.398438 115 83.699219 120.101562 79.199219 L 124.300781 75.398438 L 119.800781 72.800781 L 115.300781 70.300781 L 112.601562 72.699219 C 109.101562 75.699219 102.398438 75.898438 98.699219 73 C 93 68.5 93.398438 58.601562 99.300781 54.898438 C 103.398438 52.300781 110.101562 52.800781 113.5 56 L 115.800781 58.199219 L 120 55.398438 L 124.300781 52.601562 L 120.101562 48.898438 C 113.199219 42.800781 104.699219 41.5 96.398438 45.398438 Z M 91.398438 60.699219 C 90.898438 62.5 90.5 62.800781 89.898438 61.800781 C 89.398438 61.101562 89 59.800781 89 59 C 89 57.699219 89.101562 57.699219 90.101562 59 C 90.898438 60.101562 91 59.601562 90.601562 57 C 90.101562 54 90.101562 53.898438 91 55.800781 C 91.5 57.101562 91.699219 59.300781 91.398438 60.699219 Z M 91.5 68.898438 C 91.101562 70.199219 91.699219 71.601562 93.101562 72.898438 C 94.398438 74.101562 95 75 94.601562 75 C 94.101562 75 94.300781 75.699219 95 76.5 C 95.699219 77.300781 96 78 95.601562 78 C 94.800781 78 89 69.898438 89 68.800781 C 89 68.300781 89.5 68.199219 90 68.5 C 90.601562 68.800781 91 68.601562 91 68.101562 C 91 67.5 91.300781 67 91.601562 67 C 91.898438 67 91.898438 67.898438 91.5 68.898438 Z M 91.5 68.898438 "/>
<path style=" stroke:none;fill-rule:nonzero;fill:rgb(0%,0%,0%);fill-opacity:1;" d="M 14.398438 64 C 8.898438 75 4.5 84.199219 4.601562 84.300781 C 4.699219 84.398438 7.398438 84.300781 10.5 84.199219 C 16 83.800781 16.101562 83.800781 18.300781 79.398438 L 20.398438 75 L 40.699219 75 L 44.300781 83 L 47.601562 78.199219 L 50.800781 73.398438 L 43.398438 58.699219 L 35.898438 44 L 24.5 44 Z M 32.398438 49 C 33.800781 49.5 35.199219 51 35.601562 52.5 C 36 54 36.699219 54.699219 37.398438 54.300781 C 38 53.898438 37.800781 54.5 37 55.5 C 35.601562 57.199219 35.699219 57.300781 37.199219 56.699219 C 38.300781 56.300781 38.699219 56.5 38.398438 57.398438 C 38.101562 58.101562 38.601562 59.300781 39.5 60 C 40.300781 60.699219 41 62.101562 41 63.101562 C 41 64.199219 41.5 65 42 65 C 42.601562 65 43 65.601562 43 66.300781 C 43 67 43.5 68.101562 44.199219 68.800781 C 44.800781 69.398438 45.398438 71 45.5 72.300781 C 45.5 74.601562 45.398438 74.601562 43.398438 73.398438 C 42.300781 72.601562 41 72.300781 40.5 72.699219 C 40.101562 73.199219 40 72.898438 40.398438 72.199219 C 41 71.199219 40.699219 70.898438 39.398438 71 C 38.300781 71.101562 36.699219 71.199219 35.699219 71.101562 C 34 71 34 70.898438 35.398438 69.398438 C 36.300781 68.601562 37 67.398438 37 66.898438 C 37 66.300781 37.5 66.199219 38 66.5 C 38.699219 66.898438 38.898438 66.300781 38.5 64.800781 C 38.101562 63.5 37.800781 61.601562 37.601562 60.601562 C 37.5 59.601562 35.898438 57.300781 34.101562 55.398438 L 30.800781 52.101562 L 27.601562 54.5 C 23.699219 57.5 21.300781 63.898438 23 67 C 23.601562 68.101562 24.5 69 25.101562 69 C 25.699219 69 25.800781 69.398438 25.5 70 C 25.199219 70.5 24.199219 71 23.300781 71 C 21.101562 71 15 75.800781 15 77.601562 C 15 78.300781 14.300781 79 13.5 79 C 12.699219 79 12 78.5 12 78 C 12 77.398438 12.398438 77 13 77 C 13.5 77 13.699219 76.300781 13.300781 75.5 C 13 74.601562 13.398438 73.199219 14.199219 72.199219 C 17.101562 68.898438 22 59.300781 21.199219 58.5 C 20.800781 58 21.101562 58 21.898438 58.5 C 23 59.101562 23.199219 58.699219 22.800781 56.699219 C 22.5 55.199219 22.601562 54.300781 23.101562 54.5 C 23.5 54.800781 24.199219 54 24.601562 52.800781 C 26 48 27.699219 47.199219 32.398438 49 Z M 33.601562 61.199219 L 35.898438 66 L 31.199219 66 C 28.5 66 25.898438 66.5 25.199219 67.199219 C 24.5 67.898438 25.398438 65.199219 27.199219 61.199219 C 29 57.300781 30.699219 54.601562 30.898438 55.300781 C 31.101562 55.898438 32.300781 58.601562 33.601562 61.199219 Z M 33.601562 61.199219 "/>
<path style=" stroke:none;fill-rule:nonzero;fill:rgb(0%,0%,0%);fill-opacity:1;" d="M 46.699219 45.199219 C 54.300781 55.199219 60 63 60 63.699219 C 60 64.601562 50 79.199219 47.398438 82.199219 C 46.398438 83.199219 45.898438 84.101562 46.101562 84.300781 C 46.300781 84.5 49.300781 84.398438 52.800781 84.199219 L 59.101562 83.800781 L 63.199219 77.898438 L 67.300781 72.101562 L 71.398438 77.898438 L 75.5 83.800781 L 82 84.199219 C 85.601562 84.398438 88.601562 84.5 88.800781 84.398438 C 89 84.300781 85.699219 79.699219 81.5 74.101562 L 73.898438 64 L 89.101562 44 L 76 44 L 72.699219 48.601562 C 71 51.199219 69 53.898438 68.5 54.699219 C 67.699219 55.800781 66.601562 54.898438 63.199219 50 L 58.898438 44 L 52.300781 44 C 47.199219 44 46 44.300781 46.699219 45.199219 Z M 58.300781 50.699219 C 57.800781 51.898438 58 52.101562 59 51.5 C 59.800781 51 60.101562 51.101562 59.699219 51.699219 C 58.898438 53 61.398438 55.300781 62.5 54.199219 C 63 53.800781 63 54 62.601562 54.699219 C 62.199219 55.398438 63.101562 56.5 64.800781 57.398438 C 67.398438 58.699219 67.898438 58.699219 70.101562 57.199219 C 72.699219 55.398438 76.101562 51.5 77.199219 49.101562 C 77.699219 47.898438 77.898438 48 77.898438 49.601562 C 78 50.800781 77.300781 52.300781 76.5 53 C 75.601562 53.699219 75.101562 54.800781 75.398438 55.5 C 75.601562 56.101562 74.898438 57.199219 73.800781 57.898438 C 72.699219 58.601562 72.101562 59.398438 72.398438 59.699219 C 72.699219 60.101562 72.5 60.898438 71.898438 61.601562 C 70.699219 63.101562 71.601562 68.601562 73.199219 69.601562 C 73.898438 70.101562 74 69.800781 73.5 69 C 72.898438 68.101562 73.101562 67.898438 73.898438 68.398438 C 74.601562 68.898438 74.898438 69.800781 74.601562 70.601562 C 74.300781 71.398438 74.398438 72 74.898438 72 C 75.699219 72 78 76.398438 78 78.101562 C 78 78.699219 76.101562 77.101562 73.800781 74.601562 C 71.398438 71.898438 68.800781 70 67.601562 70 C 65 70.101562 61.800781 72.398438 62.800781 73.5 C 63.199219 74 63 74 62.398438 73.699219 C 61.699219 73.300781 60.699219 73.699219 60 74.5 C 59.300781 75.300781 59.101562 76 59.601562 76 C 60 76 59.5 76.699219 58.398438 77.601562 C 57.398438 78.398438 57.101562 78.800781 57.898438 78.398438 C 58.800781 77.898438 59.101562 78.101562 58.601562 78.898438 C 58.199219 79.5 57.398438 79.800781 56.898438 79.5 C 55.800781 78.699219 55.699219 76 56.800781 76 C 57.300781 76 58.300781 74.800781 59 73.199219 C 59.800781 71.699219 61 69.800781 61.800781 68.800781 C 63.199219 67.101562 64.199219 62 63.101562 62 C 62.699219 62 61.898438 60.5 61.199219 58.699219 C 60.5 56.898438 59.101562 54.398438 58 53.199219 C 56.800781 52 56.398438 50.898438 57 50.5 C 57.601562 50.101562 57.699219 49.398438 57.398438 48.800781 C 57 48.101562 57.199219 48 57.800781 48.398438 C 58.398438 48.800781 58.601562 49.800781 58.300781 50.699219 Z M 58.300781 50.699219 "/>
</g>
</svg>
