<svg xmlns="http://www.w3.org/2000/svg"  xmlns:xlink="http://www.w3.org/1999/xlink" width="128px" height="128px" viewBox="0 0 128 128" version="1.1">
<g id="surface1">
<path style=" stroke:none;fill-rule:nonzero;fill:rgb(0%,0%,0%);fill-opacity:1;" d="M 53.300781 43.898438 C 52 44.199219 50.101562 45.300781 49 46.300781 C 47.300781 47.699219 47.101562 48.398438 48.101562 50.101562 C 48.898438 51.601562 48.898438 52 48.101562 51.601562 C 46.300781 50.5 46.800781 52.601562 48.699219 54.101562 C 50.101562 55.300781 50.300781 55.300781 49.5 54.101562 C 49 53.101562 49.101562 52.898438 49.898438 53.398438 C 50.800781 54 50.800781 54.5 49.800781 55.800781 C 48.800781 57 48.800781 57.199219 49.800781 56.601562 C 50.5 56.199219 51 56.398438 51 57 C 51 57.601562 51.699219 58.898438 52.601562 59.699219 C 53.398438 60.601562 53.898438 62.101562 53.699219 63.101562 C 53.398438 64.101562 53.601562 65 54.199219 65.199219 C 54.699219 65.398438 54 66.5 52.699219 67.699219 L 50.199219 69.800781 L 49.5 66.699219 C 49.101562 64.898438 48.800781 62.898438 48.898438 62.199219 C 49 61.601562 48.699219 61 48.199219 61 C 47.300781 61 44.800781 56.5 44.5 54.5 C 44.101562 51.398438 41.601562 47.800781 38.800781 46 C 35.199219 43.800781 32.398438 44.101562 29.898438 47 C 29 48.101562 27.898438 48.601562 27.5 48.199219 C 27.199219 47.800781 27 47.898438 27.101562 48.5 C 27.300781 49 26.898438 50.5 26.199219 51.800781 C 25.5 53 25.199219 54.601562 25.601562 55.199219 C 26 55.898438 25.898438 56 25.199219 55.601562 C 24.5 55.199219 24 55.5 24 56.300781 C 24 57.101562 22.898438 59.800781 21.5 62.398438 C 20.101562 65 19.101562 67.398438 19.199219 67.800781 C 19.398438 69.101562 17.800781 72 17.101562 71.5 C 16.699219 71.300781 16.300781 71.699219 16.300781 72.5 C 16.300781 73.300781 16.800781 73.699219 17.300781 73.300781 C 17.800781 73 17.699219 73.601562 17.199219 74.699219 C 16.199219 76.601562 16.199219 81.5 17.199219 82.601562 C 17.5 82.800781 19.101562 83.5 20.800781 84 C 23.601562 84.699219 24.199219 84.5 26.898438 81.5 C 28.5 79.699219 30.199219 78.398438 30.601562 78.800781 C 31 79.199219 31.101562 78.800781 30.699219 77.898438 C 30.300781 76.5 30.800781 76.398438 34.398438 77.101562 C 37.300781 77.601562 39.800781 79 42.199219 81.398438 C 44.199219 83.398438 46.5 85 47.5 85 C 48.398438 85 48.898438 84.601562 48.601562 84.199219 C 48 83.199219 52.101562 83.300781 53.699219 84.300781 C 55 85.101562 59.898438 82.5 61.300781 80.300781 C 61.800781 79.5 62.5 79.199219 63.101562 79.5 C 63.601562 79.898438 64 79.601562 64 78.898438 C 64 78.199219 65.5 79 67.300781 80.800781 C 71.199219 84.601562 74.898438 84.898438 79.101562 81.898438 C 81.699219 80.101562 81.898438 79.601562 80.800781 78.199219 C 80.101562 77.300781 81.398438 78.199219 83.800781 80.199219 C 91.898438 87 104.199219 86.300781 108.800781 78.800781 C 109.898438 76.898438 110 76.800781 109.601562 78.5 C 109 80.5 109 80.5 110.5 78.601562 C 111.300781 77.5 112 75.800781 112 74.699219 C 112 72.199219 105.898438 66.5 105 68.101562 C 104.601562 68.699219 103.601562 69 102.898438 68.800781 C 102.101562 68.5 100.601562 68.800781 99.5 69.300781 C 96.800781 70.800781 94.898438 71 95.601562 69.898438 C 95.898438 69.398438 95.601562 69 95.101562 69 C 94.5 69 94 69.398438 94 70 C 94 70.5 93 69.898438 91.800781 68.699219 C 89.898438 66.898438 89.800781 66.398438 91 65.800781 C 92.101562 65.300781 92.199219 65.101562 91.101562 65.101562 C 90.398438 65 90 64.398438 90.398438 63.5 C 90.699219 62.699219 90.398438 62 89.699219 62 C 89.101562 62 89.699219 61.199219 91 60.300781 C 92.398438 59.300781 94.300781 58.699219 95.300781 58.800781 C 96.199219 59 97 58.601562 97 57.898438 C 97 57.101562 97.601562 57.300781 98.800781 58.300781 C 100.800781 60.101562 102.5 60.601562 101.601562 59.101562 C 101.199219 58.601562 101.898438 58.398438 103 58.699219 C 104.101562 59 105 59.699219 105 60.199219 C 105 60.699219 105.5 60.800781 106 60.5 C 106.601562 60.101562 106.699219 59.398438 106.398438 58.800781 C 105.898438 58.101562 106.199219 57.898438 107.199219 58.199219 C 108 58.601562 109.398438 58 110.199219 57.101562 C 111.898438 55.101562 112 48.300781 110.300781 48.300781 C 109.699219 48.300781 109.398438 49 109.699219 49.898438 C 109.898438 50.800781 109.5 50.5 108.800781 49.199219 C 106 44.601562 103.101562 43.601562 92.101562 43.898438 C 89.699219 44 88 44.300781 88.300781 44.699219 C 88.699219 45 87.300781 46.101562 85.300781 47 C 81.800781 48.5 81.601562 48.5 79.199219 46.300781 C 77.898438 45.101562 76.398438 44.199219 76.101562 44.5 C 75.699219 44.699219 74.800781 44.5 74 44 C 72.699219 43.199219 66 46.699219 66 48.300781 C 66 48.800781 66.5 48.800781 67.199219 48.398438 C 67.800781 48 68 48.101562 67.601562 48.800781 C 66.699219 50.300781 62.800781 49.398438 61 47.199219 C 58.699219 44.5 55.800781 43.199219 53.300781 43.898438 Z M 105.699219 50.300781 C 109.601562 52.898438 109.699219 53.5 106.5 55.601562 C 104.300781 57 103.898438 57 101.800781 55.601562 C 100.601562 54.699219 97.800781 54 95.699219 54 C 87.898438 54 83.101562 63.398438 87.601562 69.898438 C 90.800781 74.5 99.199219 75.898438 102.101562 72.398438 C 103.699219 70.5 104.699219 70.601562 107.300781 73.101562 L 109.5 75.101562 L 107 77.101562 C 103.398438 79.800781 97.398438 81.199219 92.601562 80.398438 C 86.898438 79.5 80.5 73.101562 79.601562 67.398438 C 78.199219 59.300781 83 50.898438 90.5 48.101562 C 94.699219 46.601562 101.800781 47.601562 105.699219 50.300781 Z M 44 62.699219 C 47.398438 70.800781 50.5 78 50.699219 78.699219 C 51.101562 79.601562 50.101562 80 47.601562 80 C 44.398438 80 43.800781 79.601562 42.898438 77 C 41.898438 74.199219 41.398438 74 36.898438 74 C 33.300781 74 32 73.601562 32 72.601562 C 32 69.398438 33.300781 68 36.101562 68 C 37.699219 68 39 67.800781 39 67.601562 C 39 67 34.898438 58 34.601562 58 C 34.5 58 32.398438 62.898438 29.898438 68.898438 C 25.800781 79 25.300781 79.898438 22.5 80.300781 C 20.898438 80.601562 19.199219 80.601562 18.898438 80.398438 C 18.398438 80.101562 22.398438 69.898438 31 50.199219 C 31.699219 48.699219 32.800781 48 34.800781 48 C 37.601562 48 38 48.601562 44 62.699219 Z M 61 53.199219 L 64.199219 58.398438 L 67.398438 53.199219 C 70.300781 48.199219 70.699219 48 74.800781 48 L 79.101562 48 L 74 55.5 C 71.300781 59.601562 69 63.398438 69 64 C 69 64.601562 71.199219 68.5 73.898438 72.601562 L 78.800781 80 L 74.5 80 C 70.300781 80 70 79.800781 67.300781 75 L 64.300781 69.898438 L 61.199219 75 C 58.800781 78.898438 57.5 80 55.5 80 C 51.5 80 51.601562 77.699219 55.898438 70.601562 L 59.898438 64.101562 L 55 56.601562 C 52.199219 52.398438 50 48.800781 50 48.5 C 50 48.199219 51.800781 48 53.898438 48 C 57.601562 48 58.101562 48.398438 61 53.199219 Z M 61 53.199219 "/>
</g>
</svg>
