
<svg xmlns="http://www.w3.org/2000/svg" xmlns:xlink="http://www.w3.org/1999/xlink" width="512px" height="512px" viewBox="0 0 512 512" version="1.1">
<g id="surface1">
<path style=" stroke:none;fill-rule:nonzero;fill:rgb(0%,0%,0%);fill-opacity:1;" d="M 213.203125 175.59375 C 208 176.796875 200.40625 181.203125 196 185.203125 C 189.203125 190.796875 188.40625 193.59375 192.40625 200.40625 C 195.59375 206.40625 195.59375 208 192.40625 206.40625 C 185.203125 202 187.203125 210.40625 194.796875 216.40625 C 200.40625 221.203125 201.203125 221.203125 198 216.40625 C 196 212.40625 196.40625 211.59375 199.59375 213.59375 C 203.203125 216 203.203125 218 199.203125 223.203125 C 195.203125 228 195.203125 228.796875 199.203125 226.40625 C 202 224.796875 204 225.59375 204 228 C 204 230.40625 206.796875 235.59375 210.40625 238.796875 C 213.59375 242.40625 215.59375 248.40625 214.796875 252.40625 C 213.59375 256.40625 214.40625 260 216.796875 260.796875 C 218.796875 261.59375 216 266 210.796875 270.796875 L 200.796875 279.203125 L 198 266.796875 C 196.40625 259.59375 195.203125 251.59375 195.59375 248.796875 C 196 246.40625 194.796875 244 192.796875 244 C 189.203125 244 179.203125 226 178 218 C 176.40625 205.59375 166.40625 191.203125 155.203125 184 C 140.796875 175.203125 129.59375 176.40625 119.59375 188 C 116 192.40625 111.59375 194.40625 110 192.796875 C 108.796875 191.203125 108 191.59375 108.40625 194 C 109.203125 196 107.59375 202 104.796875 207.203125 C 102 212 100.796875 218.40625 102.40625 220.796875 C 104 223.59375 103.59375 224 100.796875 222.40625 C 98 220.796875 96 222 96 225.203125 C 96 228.40625 91.59375 239.203125 86 249.59375 C 80.40625 260 76.40625 269.59375 76.796875 271.203125 C 77.59375 276.40625 71.203125 288 68.40625 286 C 66.796875 285.203125 65.203125 286.796875 65.203125 290 C 65.203125 293.203125 67.203125 294.796875 69.203125 293.203125 C 71.203125 292 70.796875 294.40625 68.796875 298.796875 C 64.796875 306.40625 64.796875 326 68.796875 330.40625 C 70 331.203125 76.40625 334 83.203125 336 C 94.40625 338.796875 96.796875 338 107.59375 326 C 114 318.796875 120.796875 313.59375 122.40625 315.203125 C 124 316.796875 124.40625 315.203125 122.796875 311.59375 C 121.203125 306 123.203125 305.59375 137.59375 308.40625 C 149.203125 310.40625 159.203125 316 168.796875 325.59375 C 176.796875 333.59375 186 340 190 340 C 193.59375 340 195.59375 338.40625 194.40625 336.796875 C 192 332.796875 208.40625 333.203125 214.796875 337.203125 C 220 340.40625 239.59375 330 245.203125 321.203125 C 247.203125 318 250 316.796875 252.40625 318 C 254.40625 319.59375 256 318.40625 256 315.59375 C 256 312.796875 262 316 269.203125 323.203125 C 284.796875 338.40625 299.59375 339.59375 316.40625 327.59375 C 326.796875 320.40625 327.59375 318.40625 323.203125 312.796875 C 320.40625 309.203125 325.59375 312.796875 335.203125 320.796875 C 367.59375 348 416.796875 345.203125 435.203125 315.203125 C 439.59375 307.59375 440 307.203125 438.40625 314 C 436 322 436 322 442 314.40625 C 445.203125 310 448 303.203125 448 298.796875 C 448 288.796875 423.59375 266 420 272.40625 C 418.40625 274.796875 414.40625 276 411.59375 275.203125 C 408.40625 274 402.40625 275.203125 398 277.203125 C 387.203125 283.203125 379.59375 284 382.40625 279.59375 C 383.59375 277.59375 382.40625 276 380.40625 276 C 378 276 376 277.59375 376 280 C 376 282 372 279.59375 367.203125 274.796875 C 359.59375 267.59375 359.203125 265.59375 364 263.203125 C 368.40625 261.203125 368.796875 260.40625 364.40625 260.40625 C 361.59375 260 360 257.59375 361.59375 254 C 362.796875 250.796875 361.59375 248 358.796875 248 C 356.40625 248 358.796875 244.796875 364 241.203125 C 369.59375 237.203125 377.203125 234.796875 381.203125 235.203125 C 384.796875 236 388 234.40625 388 231.59375 C 388 228.40625 390.40625 229.203125 395.203125 233.203125 C 403.203125 240.40625 410 242.40625 406.40625 236.40625 C 404.796875 234.40625 407.59375 233.59375 412 234.796875 C 416.40625 236 420 238.796875 420 240.796875 C 420 242.796875 422 243.203125 424 242 C 426.40625 240.40625 426.796875 237.59375 425.59375 235.203125 C 423.59375 232.40625 424.796875 231.59375 428.796875 232.796875 C 432 234.40625 437.59375 232 440.796875 228.40625 C 447.59375 220.40625 448 193.203125 441.203125 193.203125 C 438.796875 193.203125 437.59375 196 438.796875 199.59375 C 439.59375 203.203125 438 202 435.203125 196.796875 C 424 178.40625 412.40625 174.40625 368.40625 175.59375 C 358.796875 176 352 177.203125 353.203125 178.796875 C 354.796875 180 349.203125 184.40625 341.203125 188 C 327.203125 194 326.40625 194 316.796875 185.203125 C 311.59375 180.40625 305.59375 176.796875 304.40625 178 C 302.796875 178.796875 299.203125 178 296 176 C 290.796875 172.796875 264 186.796875 264 193.203125 C 264 195.203125 266 195.203125 268.796875 193.59375 C 271.203125 192 272 192.40625 270.40625 195.203125 C 266.796875 201.203125 251.203125 197.59375 244 188.796875 C 234.796875 178 223.203125 172.796875 213.203125 175.59375 Z M 422.796875 201.203125 C 438.40625 211.59375 438.796875 214 426 222.40625 C 417.203125 228 415.59375 228 407.203125 222.40625 C 402.40625 218.796875 391.203125 216 382.796875 216 C 351.59375 216 332.40625 253.59375 350.40625 279.59375 C 363.203125 298 396.796875 303.59375 408.40625 289.59375 C 414.796875 282 418.796875 282.40625 429.203125 292.40625 L 438 300.40625 L 428 308.40625 C 413.59375 319.203125 389.59375 324.796875 370.40625 321.59375 C 347.59375 318 322 292.40625 318.40625 269.59375 C 312.796875 237.203125 332 203.59375 362 192.40625 C 378.796875 186.40625 407.203125 190.40625 422.796875 201.203125 Z M 176 250.796875 C 189.59375 283.203125 202 312 202.796875 314.796875 C 204.40625 318.40625 200.40625 320 190.40625 320 C 177.59375 320 175.203125 318.40625 171.59375 308 C 167.59375 296.796875 165.59375 296 147.59375 296 C 133.203125 296 128 294.40625 128 290.40625 C 128 277.59375 133.203125 272 144.40625 272 C 150.796875 272 156 271.203125 156 270.40625 C 156 268 139.59375 232 138.40625 232 C 138 232 129.59375 251.59375 119.59375 275.59375 C 103.203125 316 101.203125 319.59375 90 321.203125 C 83.59375 322.40625 76.796875 322.40625 75.59375 321.59375 C 73.59375 320.40625 89.59375 279.59375 124 200.796875 C 126.796875 194.796875 131.203125 192 139.203125 192 C 150.40625 192 152 194.40625 176 250.796875 Z M 244 212.796875 L 256.796875 233.59375 L 269.59375 212.796875 C 281.203125 192.796875 282.796875 192 299.203125 192 L 316.40625 192 L 296 222 C 285.203125 238.40625 276 253.59375 276 256 C 276 258.40625 284.796875 274 295.59375 290.40625 L 315.203125 320 L 298 320 C 281.203125 320 280 319.203125 269.203125 300 L 257.203125 279.59375 L 244.796875 300 C 235.203125 315.59375 230 320 222 320 C 206 320 206.40625 310.796875 223.59375 282.40625 L 239.59375 256.40625 L 220 226.40625 C 208.796875 209.59375 200 195.203125 200 194 C 200 192.796875 207.203125 192 215.59375 192 C 230.40625 192 232.40625 193.59375 244 212.796875 Z M 244 212.796875 "/>
</g>
</svg>
